<svg width="756" height="756" viewBox="0 0 756 756" fill="none" xmlns="http://www.w3.org/2000/svg">
<g clip-path="url(#clip0)">
<g filter="url(#filter0_d)">
<path d="M518.829 195.862L462.362 196.096L462.363 196.097C459.462 196.203 456.706 198.018 454.631 201.612C449.909 209.789 450.502 224.074 455.953 233.516C458.95 238.707 462.792 241.348 466.429 241.321L466.43 241.326L522.254 241.101L521.986 237.564C522.463 236.977 522.919 236.318 523.344 235.582C528.066 227.404 527.473 213.12 522.021 203.677C521.121 202.119 520.144 200.794 519.119 199.697L518.829 195.862Z" fill="url(#paint0_linear)"/>
<path d="M529.043 203.669C523.591 194.226 515.344 193.2 510.622 201.378C505.901 209.555 506.493 223.839 511.945 233.282C517.396 242.724 525.643 243.75 530.365 235.573C535.086 227.394 534.494 213.111 529.043 203.669Z" fill="url(#paint1_linear)"/>
<path d="M525.816 209.256C522.422 203.377 517.287 202.739 514.348 207.831C511.409 212.921 511.777 221.816 515.171 227.694C518.566 233.574 523.7 234.212 526.639 229.12C529.58 224.029 529.21 215.135 525.816 209.256Z" fill="url(#paint2_linear)"/>
<path d="M541.415 298.379L484.948 298.614L484.949 298.615C482.048 298.721 479.292 300.536 477.217 304.13C472.495 312.307 473.088 326.591 478.539 336.034C481.536 341.225 485.377 343.866 489.015 343.838L489.016 343.844L544.84 343.618L544.572 340.082C545.049 339.494 545.505 338.835 545.93 338.099C550.651 329.922 550.059 315.637 544.607 306.195C543.707 304.636 542.73 303.311 541.705 302.215L541.415 298.379Z" fill="url(#paint3_linear)"/>
<path d="M551.629 306.186C546.177 296.744 537.93 295.718 533.208 303.895C528.487 312.073 529.079 326.357 534.531 335.8C539.982 345.242 548.229 346.268 552.951 338.09C557.672 329.912 557.08 315.629 551.629 306.186Z" fill="url(#paint4_linear)"/>
<path d="M548.402 311.774C545.008 305.895 539.873 305.257 536.934 310.348C533.994 315.439 534.363 324.333 537.757 330.212C541.152 336.091 546.286 336.73 549.225 331.638C552.166 326.546 551.796 317.653 548.402 311.774Z" fill="url(#paint5_linear)"/>
<path d="M449.174 479.794L392.708 480.029L392.708 480.03C389.807 480.136 387.052 481.951 384.977 485.545C380.255 493.722 380.847 508.007 386.299 517.449C389.296 522.64 393.137 525.281 396.775 525.254L396.776 525.259L452.6 525.034L452.332 521.497C452.809 520.91 453.264 520.251 453.689 519.514C458.411 511.337 457.819 497.053 452.367 487.61C451.467 486.051 450.49 484.727 449.465 483.63L449.174 479.794Z" fill="url(#paint6_linear)"/>
<path d="M459.388 487.601C453.937 478.159 445.69 477.133 440.968 485.311C436.246 493.488 436.838 507.772 442.29 517.215C447.742 526.657 455.989 527.683 460.711 519.506C465.432 511.327 464.84 497.044 459.388 487.601Z" fill="url(#paint7_linear)"/>
<path d="M456.162 493.189C452.768 487.31 447.633 486.672 444.694 491.763C441.754 496.854 442.123 505.748 445.517 511.627C448.911 517.506 454.045 518.145 456.985 513.053C459.925 507.962 459.556 499.068 456.162 493.189Z" fill="url(#paint8_linear)"/>
<path d="M349.249 542.278L292.782 542.513L292.783 542.514C289.882 542.62 287.126 544.435 285.051 548.029C280.329 556.206 280.922 570.491 286.373 579.933C289.37 585.124 293.212 587.765 296.849 587.738L296.85 587.743L352.674 587.518L352.406 583.981C352.883 583.394 353.339 582.735 353.764 581.998C358.486 573.821 357.893 559.537 352.442 550.094C351.542 548.535 350.564 547.211 349.54 546.114L349.249 542.278Z" fill="url(#paint9_linear)"/>
<path d="M359.463 550.085C354.011 540.643 345.764 539.617 341.043 547.795C336.321 555.972 336.913 570.256 342.365 579.699C347.816 589.141 356.063 590.167 360.785 581.99C365.506 573.811 364.914 559.528 359.463 550.085Z" fill="url(#paint10_linear)"/>
<path d="M356.237 555.673C352.842 549.794 347.707 549.156 344.768 554.247C341.829 559.338 342.197 568.232 345.591 574.111C348.986 579.991 354.12 580.629 357.06 575.537C360 570.446 359.631 561.552 356.237 555.673Z" fill="url(#paint11_linear)"/>
<path d="M417.169 364.525L445.472 140.444L488.718 140.444L536.877 370.446L417.169 364.525Z" fill="url(#paint12_linear)"/>
<path d="M298.454 378.632L279.082 316.092L245.219 316.092L238.454 378.898L298.454 378.632Z" fill="#FEFEFE"/>
<path d="M662.154 387.576C662.154 387.576 689.224 392.735 692.97 399.548C692.97 399.548 703.002 412.766 696.809 423.492C696.809 423.492 681.993 456.499 640.662 462.496C640.662 462.496 579.161 468.152 506.51 462.953C468.674 460.245 372.165 438.479 291.721 415.589L227.78 396.654C222.285 395.028 218.371 390.171 217.946 384.457C217.37 376.681 223.355 369.976 231.147 369.67L542.584 359.616C584.225 358.076 625.515 367.732 662.154 387.576Z" fill="url(#paint13_linear)"/>
<path d="M310.589 376.148L194.733 282.022L141.206 282.021L223.734 376.148L310.589 376.148Z" fill="url(#paint14_linear)"/>
<path d="M288.635 399.226L205.865 447.013L176.096 447.014L236.551 388.139L288.635 399.226Z" fill="#FEFEFE"/>
<path d="M655.882 384.314C644.627 378.652 632.964 373.944 621.018 370.191C624.404 373.396 626.744 380.131 625.029 385.944C620.651 400.778 590.372 421.482 571.715 425.301C561.537 427.384 555.542 427.24 555.542 427.24L576.059 441.354C576.059 441.354 608.488 446.603 635.063 424.475C652.592 409.88 656.61 395.41 655.882 384.314V384.314Z" fill="#101010"/>
<path d="M393.327 430.258L215.078 595.489L261.819 595.49L491.993 458.709C479.843 443.338 461.672 433.93 442.108 432.879L393.327 430.258Z" fill="#FEFEFE"/>
</g>
<line x1="5" y1="-5" x2="139.159" y2="-5" transform="matrix(0.999982 -0.00595442 0.00554282 0.999985 292.008 150.6)" stroke="#6DB9FF" stroke-width="10" stroke-linecap="round" stroke-linejoin="round"/>
<line x1="327.819" y1="184.724" x2="421.369" y2="184.167" stroke="#6DB9FF" stroke-width="10" stroke-linecap="round" stroke-linejoin="round"/>
<line x1="359.393" y1="223.873" x2="411.603" y2="223.563" stroke="#6DB9FF" stroke-width="10" stroke-linecap="round" stroke-linejoin="round"/>
<line x1="5" y1="-5" x2="139.159" y2="-5" transform="matrix(0.991778 0.12797 0.127562 -0.991831 70.0646 565.502)" stroke="#6DB9FF" stroke-width="10" stroke-linecap="round" stroke-linejoin="round"/>
<line x1="5" y1="-5" x2="98.5512" y2="-5" transform="matrix(0.991778 0.12797 0.12797 -0.991778 133.314 531.824)" stroke="#6DB9FF" stroke-width="10" stroke-linecap="round" stroke-linejoin="round"/>
<line x1="5" y1="-5" x2="57.2106" y2="-5" transform="matrix(0.991778 0.12797 0.12797 -0.991778 207.347 502.328)" stroke="#6DB9FF" stroke-width="10" stroke-linecap="round" stroke-linejoin="round"/>
</g>
<defs>
<filter id="filter0_d" x="137.206" y="121.718" width="576.913" height="517.893" filterUnits="userSpaceOnUse" color-interpolation-filters="sRGB">
<feFlood flood-opacity="0" result="BackgroundImageFix"/>
<feColorMatrix in="SourceAlpha" type="matrix" values="0 0 0 0 0 0 0 0 0 0 0 0 0 0 0 0 0 0 127 0"/>
<feOffset dy="4"/>
<feGaussianBlur stdDeviation="2"/>
<feColorMatrix type="matrix" values="0 0 0 0 0 0 0 0 0 0 0 0 0 0 0 0 0 0 0.25 0"/>
<feBlend mode="normal" in2="BackgroundImageFix" result="effect1_dropShadow"/>
<feBlend mode="normal" in="SourceGraphic" in2="effect1_dropShadow" result="shape"/>
</filter>
<linearGradient id="paint0_linear" x1="488.985" y1="216.573" x2="488.986" y2="204.342" gradientUnits="userSpaceOnUse">
<stop stop-color="#464646"/>
<stop offset="1" stop-color="#ECEBEB"/>
</linearGradient>
<linearGradient id="paint1_linear" x1="534.292" y1="242.372" x2="507.579" y2="196.104" gradientUnits="userSpaceOnUse">
<stop stop-color="#050505"/>
<stop offset="1" stop-color="#EFEFEF"/>
</linearGradient>
<linearGradient id="paint2_linear" x1="520.495" y1="202.289" x2="520.494" y2="222.384" gradientUnits="userSpaceOnUse">
<stop/>
<stop offset="1" stop-color="#BCBCBC"/>
</linearGradient>
<linearGradient id="paint3_linear" x1="511.571" y1="319.091" x2="511.572" y2="306.86" gradientUnits="userSpaceOnUse">
<stop stop-color="#464646"/>
<stop offset="1" stop-color="#ECEBEB"/>
</linearGradient>
<linearGradient id="paint4_linear" x1="556.878" y1="344.89" x2="530.165" y2="298.622" gradientUnits="userSpaceOnUse">
<stop stop-color="#050505"/>
<stop offset="1" stop-color="#EFEFEF"/>
</linearGradient>
<linearGradient id="paint5_linear" x1="543.081" y1="304.806" x2="543.08" y2="324.902" gradientUnits="userSpaceOnUse">
<stop/>
<stop offset="1" stop-color="#BCBCBC"/>
</linearGradient>
<linearGradient id="paint6_linear" x1="419.331" y1="500.506" x2="419.332" y2="488.275" gradientUnits="userSpaceOnUse">
<stop stop-color="#464646"/>
<stop offset="1" stop-color="#ECEBEB"/>
</linearGradient>
<linearGradient id="paint7_linear" x1="464.638" y1="526.305" x2="437.925" y2="480.037" gradientUnits="userSpaceOnUse">
<stop stop-color="#050505"/>
<stop offset="1" stop-color="#EFEFEF"/>
</linearGradient>
<linearGradient id="paint8_linear" x1="450.84" y1="486.222" x2="450.84" y2="506.317" gradientUnits="userSpaceOnUse">
<stop/>
<stop offset="1" stop-color="#BCBCBC"/>
</linearGradient>
<linearGradient id="paint9_linear" x1="319.405" y1="562.99" x2="319.406" y2="550.759" gradientUnits="userSpaceOnUse">
<stop stop-color="#464646"/>
<stop offset="1" stop-color="#ECEBEB"/>
</linearGradient>
<linearGradient id="paint10_linear" x1="364.712" y1="588.789" x2="337.999" y2="542.521" gradientUnits="userSpaceOnUse">
<stop stop-color="#050505"/>
<stop offset="1" stop-color="#EFEFEF"/>
</linearGradient>
<linearGradient id="paint11_linear" x1="350.915" y1="548.706" x2="350.914" y2="568.801" gradientUnits="userSpaceOnUse">
<stop/>
<stop offset="1" stop-color="#BCBCBC"/>
</linearGradient>
<linearGradient id="paint12_linear" x1="462.698" y1="430.772" x2="498.446" y2="210.682" gradientUnits="userSpaceOnUse">
<stop stop-color="#BEBEBE"/>
<stop offset="1" stop-color="#FBFBFB"/>
</linearGradient>
<linearGradient id="paint13_linear" x1="458.368" y1="469.761" x2="458.368" y2="389.325" gradientUnits="userSpaceOnUse">
<stop stop-color="#B3B2B2"/>
<stop offset="1" stop-color="#FBFBFB"/>
</linearGradient>
<linearGradient id="paint14_linear" x1="182.758" y1="353.992" x2="269.037" y2="304.178" gradientUnits="userSpaceOnUse">
<stop stop-color="#BEBEBD"/>
<stop offset="1" stop-color="#FBFBFB"/>
</linearGradient>
<clipPath id="clip0">
<rect width="756" height="756" fill="white"/>
</clipPath>
</defs>
</svg>
