<svg width="756" height="756" viewBox="0 0 756 756" fill="none" xmlns="http://www.w3.org/2000/svg">
<g filter="url(#filter0_d)">
<path d="M558.208 273.15L509.189 245.12V245.121C506.624 243.762 503.33 243.956 499.736 246.031C491.558 250.752 484.929 263.419 484.929 274.322C484.929 280.316 486.935 284.524 490.099 286.319L490.097 286.324L538.555 314.041L540.091 310.844C540.798 310.574 541.522 310.231 542.258 309.806C550.436 305.085 557.065 292.418 557.065 281.515C557.065 279.715 556.881 278.079 556.542 276.617L558.208 273.15Z" fill="url(#paint0_linear)"/>
<path d="M563.15 285.018C563.15 274.115 556.521 269.103 548.343 273.824C540.165 278.545 533.536 291.211 533.536 302.115C533.536 313.018 540.165 318.03 548.343 313.309C556.521 308.587 563.15 295.921 563.15 285.018Z" fill="url(#paint1_linear)"/>
<path d="M557.562 288.244C557.562 281.455 553.434 278.335 548.343 281.275C543.252 284.214 539.124 292.101 539.124 298.889C539.124 305.678 543.251 308.798 548.343 305.858C553.435 302.919 557.562 295.032 557.562 288.244Z" fill="url(#paint2_linear)"/>
<path d="M526.509 373.226L477.49 345.196V345.197C474.925 343.838 471.631 344.032 468.037 346.107C459.859 350.828 453.23 363.495 453.23 374.398C453.23 380.392 455.236 384.6 458.4 386.395L458.398 386.4L506.856 414.117L508.392 410.92C509.099 410.65 509.823 410.307 510.559 409.882C518.737 405.161 525.366 392.494 525.366 381.591C525.366 379.791 525.182 378.155 524.843 376.693L526.509 373.226Z" fill="url(#paint3_linear)"/>
<path d="M531.451 385.094C531.451 374.191 524.822 369.179 516.644 373.9C508.466 378.621 501.837 391.287 501.837 402.191C501.837 413.094 508.466 418.106 516.644 413.385C524.822 408.663 531.451 395.997 531.451 385.094Z" fill="url(#paint4_linear)"/>
<path d="M525.863 388.32C525.863 381.531 521.735 378.411 516.644 381.351C511.553 384.29 507.425 392.177 507.425 398.965C507.425 405.754 511.552 408.874 516.644 405.934C521.736 402.995 525.863 395.108 525.863 388.32Z" fill="url(#paint5_linear)"/>
<path d="M355.919 484.216L306.9 456.186V456.187C304.335 454.828 301.041 455.022 297.447 457.097C289.269 461.818 282.64 474.485 282.64 485.388C282.64 491.382 284.646 495.59 287.81 497.385L287.808 497.39L336.266 525.107L337.802 521.91C338.509 521.64 339.233 521.297 339.969 520.872C348.147 516.151 354.776 503.484 354.776 492.581C354.776 490.781 354.592 489.145 354.253 487.683L355.919 484.216Z" fill="url(#paint6_linear)"/>
<path d="M360.861 496.084C360.861 485.181 354.232 480.169 346.054 484.89C337.876 489.611 331.247 502.277 331.247 513.181C331.247 524.084 337.876 529.096 346.054 524.375C354.232 519.653 360.861 506.987 360.861 496.084Z" fill="url(#paint7_linear)"/>
<path d="M355.273 499.31C355.273 492.521 351.145 489.401 346.054 492.341C340.963 495.28 336.835 503.167 336.835 509.955C336.835 516.744 340.962 519.864 346.054 516.924C351.146 513.985 355.273 506.098 355.273 499.31Z" fill="url(#paint8_linear)"/>
<path d="M238.139 488.366L189.12 460.336V460.337C186.555 458.978 183.261 459.172 179.667 461.247C171.489 465.968 164.86 478.635 164.86 489.538C164.86 495.532 166.866 499.74 170.03 501.535L170.028 501.54L218.486 529.257L220.022 526.06C220.729 525.79 221.453 525.447 222.189 525.022C230.367 520.301 236.996 507.634 236.996 496.731C236.996 494.931 236.812 493.295 236.473 491.833L238.139 488.366Z" fill="url(#paint9_linear)"/>
<path d="M243.081 500.234C243.081 489.331 236.452 484.319 228.274 489.04C220.096 493.761 213.467 506.427 213.467 517.331C213.467 528.234 220.096 533.246 228.274 528.525C236.452 523.803 243.081 511.137 243.081 500.234Z" fill="url(#paint10_linear)"/>
<path d="M237.493 503.46C237.493 496.671 233.365 493.551 228.274 496.491C223.183 499.43 219.055 507.317 219.055 514.105C219.055 520.894 223.182 524.014 228.274 521.074C233.366 518.135 237.493 510.248 237.493 503.46Z" fill="url(#paint11_linear)"/>
<path d="M385.836 368.387L522.388 188.478L559.84 210.101L486.546 433.369L385.836 368.387Z" fill="url(#paint12_linear)"/>
<path d="M275.973 321.246L290.466 257.399L261.14 240.468L223.878 291.477L275.973 321.246Z" fill="#FEFEFE"/>
<path d="M586.474 510.842C586.474 510.842 607.338 528.845 607.176 536.618C607.176 536.618 609.255 553.081 598.528 559.274C598.528 559.274 569.194 580.451 530.401 564.979C530.401 564.979 474.312 539.127 413.994 498.298C382.581 477.035 309.885 409.931 251.663 349.886L205.756 301.517C201.811 297.361 200.849 291.198 203.338 286.037C206.727 279.015 215.263 276.201 222.164 279.831L496.904 426.843C533.735 446.33 564.666 475.337 586.474 510.842Z" fill="url(#paint13_linear)"/>
<path d="M287.724 325.163L234.453 185.719L188.097 158.955L212.505 281.735L287.724 325.163Z" fill="url(#paint14_linear)"/>
<path d="M257.172 334.172H161.598L135.817 319.288L217.61 298.528L257.172 334.172Z" fill="#FEFEFE"/>
<path d="M582.674 504.881C575.757 494.35 568.011 484.441 559.542 475.218C560.872 479.687 559.531 486.69 555.139 490.866C543.931 501.524 507.356 504.315 489.289 498.293C479.433 495.008 474.313 491.886 474.313 491.886L485.025 514.368C485.025 514.368 510.485 535.128 544.563 529.252C567.041 525.377 577.756 514.855 582.674 504.881V504.881Z" fill="#101010"/>
<path d="M332.322 413.392L95.3378 467.362L135.817 490.733L403.544 487.365C400.707 467.978 389.675 450.745 373.257 440.053L332.322 413.392Z" fill="#FEFEFE"/>
</g>
<defs>
<filter id="filter0_d" x="91.3378" y="158.955" width="520" height="419.68" filterUnits="userSpaceOnUse" color-interpolation-filters="sRGB">
<feFlood flood-opacity="0" result="BackgroundImageFix"/>
<feColorMatrix in="SourceAlpha" type="matrix" values="0 0 0 0 0 0 0 0 0 0 0 0 0 0 0 0 0 0 127 0"/>
<feOffset dy="4"/>
<feGaussianBlur stdDeviation="2"/>
<feColorMatrix type="matrix" values="0 0 0 0 0 0 0 0 0 0 0 0 0 0 0 0 0 0 0.25 0"/>
<feBlend mode="normal" in2="BackgroundImageFix" result="effect1_dropShadow"/>
<feBlend mode="normal" in="SourceGraphic" in2="effect1_dropShadow" result="shape"/>
</filter>
<linearGradient id="paint0_linear" x1="522.007" y1="276.165" x2="528.123" y2="265.573" gradientUnits="userSpaceOnUse">
<stop stop-color="#464646"/>
<stop offset="1" stop-color="#ECEBEB"/>
</linearGradient>
<linearGradient id="paint1_linear" x1="548.344" y1="321.161" x2="548.344" y2="267.735" gradientUnits="userSpaceOnUse">
<stop stop-color="#050505"/>
<stop offset="1" stop-color="#EFEFEF"/>
</linearGradient>
<linearGradient id="paint2_linear" x1="556.437" y1="279.549" x2="546.389" y2="296.952" gradientUnits="userSpaceOnUse">
<stop/>
<stop offset="1" stop-color="#BCBCBC"/>
</linearGradient>
<linearGradient id="paint3_linear" x1="490.308" y1="376.241" x2="496.424" y2="365.649" gradientUnits="userSpaceOnUse">
<stop stop-color="#464646"/>
<stop offset="1" stop-color="#ECEBEB"/>
</linearGradient>
<linearGradient id="paint4_linear" x1="516.645" y1="421.237" x2="516.645" y2="367.811" gradientUnits="userSpaceOnUse">
<stop stop-color="#050505"/>
<stop offset="1" stop-color="#EFEFEF"/>
</linearGradient>
<linearGradient id="paint5_linear" x1="524.738" y1="379.625" x2="514.69" y2="397.028" gradientUnits="userSpaceOnUse">
<stop/>
<stop offset="1" stop-color="#BCBCBC"/>
</linearGradient>
<linearGradient id="paint6_linear" x1="319.718" y1="487.231" x2="325.834" y2="476.639" gradientUnits="userSpaceOnUse">
<stop stop-color="#464646"/>
<stop offset="1" stop-color="#ECEBEB"/>
</linearGradient>
<linearGradient id="paint7_linear" x1="346.055" y1="532.227" x2="346.055" y2="478.801" gradientUnits="userSpaceOnUse">
<stop stop-color="#050505"/>
<stop offset="1" stop-color="#EFEFEF"/>
</linearGradient>
<linearGradient id="paint8_linear" x1="354.148" y1="490.615" x2="344.1" y2="508.018" gradientUnits="userSpaceOnUse">
<stop/>
<stop offset="1" stop-color="#BCBCBC"/>
</linearGradient>
<linearGradient id="paint9_linear" x1="201.938" y1="491.381" x2="208.054" y2="480.789" gradientUnits="userSpaceOnUse">
<stop stop-color="#464646"/>
<stop offset="1" stop-color="#ECEBEB"/>
</linearGradient>
<linearGradient id="paint10_linear" x1="228.275" y1="536.377" x2="228.275" y2="482.951" gradientUnits="userSpaceOnUse">
<stop stop-color="#050505"/>
<stop offset="1" stop-color="#EFEFEF"/>
</linearGradient>
<linearGradient id="paint11_linear" x1="236.368" y1="494.765" x2="226.32" y2="512.168" gradientUnits="userSpaceOnUse">
<stop/>
<stop offset="1" stop-color="#BCBCBC"/>
</linearGradient>
<linearGradient id="paint12_linear" x1="392.142" y1="448.523" x2="533.146" y2="275.793" gradientUnits="userSpaceOnUse">
<stop stop-color="#BEBEBE"/>
<stop offset="1" stop-color="#FBFBFB"/>
</linearGradient>
<linearGradient id="paint13_linear" x1="368.898" y1="480.123" x2="409.116" y2="410.464" gradientUnits="userSpaceOnUse">
<stop stop-color="#B3B2B2"/>
<stop offset="1" stop-color="#FBFBFB"/>
</linearGradient>
<linearGradient id="paint14_linear" x1="188.097" y1="242.059" x2="287.724" y2="242.059" gradientUnits="userSpaceOnUse">
<stop stop-color="#BEBEBD"/>
<stop offset="1" stop-color="#FBFBFB"/>
</linearGradient>
</defs>
</svg>
